<svg width="123" height="123" viewBox="0 0 123 123" fill="none" xmlns="http://www.w3.org/2000/svg">
<g clip-path="url(#clip0_4_6)">
<path d="M61.44 0C78.406 0 93.766 6.877 104.885 17.996C116.004 29.114 122.881 44.475 122.881 61.44C122.881 78.407 116.004 93.766 104.885 104.884C93.766 116.003 78.406 122.88 61.44 122.88C44.474 122.88 29.114 116.003 17.996 104.884C6.877 93.766 0 78.406 0 61.439C0 44.474 6.877 29.113 17.996 17.995C29.114 6.877 44.474 0 61.44 0ZM80.16 37.369C81.461 36.067 83.572 36.067 84.873 37.369C86.174 38.67 86.174 40.78 84.873 42.082L65.512 61.444L84.873 80.806C86.174 82.107 86.174 84.217 84.873 85.519C83.572 86.82 81.461 86.82 80.16 85.519L60.798 66.157L41.436 85.52C40.135 86.821 38.024 86.821 36.723 85.52C35.422 84.218 35.422 82.108 36.723 80.807L56.086 61.445L36.723 42.082C35.422 40.78 35.422 38.67 36.723 37.369C38.024 36.067 40.135 36.067 41.436 37.369L60.799 56.731L80.16 37.369ZM100.172 22.708C90.26 12.796 76.566 6.666 61.44 6.666C46.314 6.666 32.621 12.796 22.709 22.708C12.797 32.62 6.666 46.314 6.666 61.439C6.666 76.565 12.797 90.259 22.708 100.171C32.62 110.082 46.313 116.213 61.439 116.213C76.565 116.213 90.259 110.082 100.171 100.171C110.083 90.259 116.214 76.565 116.214 61.439C116.215 46.314 110.084 32.62 100.172 22.708Z" fill="white"/>
</g>
<defs>
<clipPath id="clip0_4_6">
<rect width="122.881" height="122.88" fill="white"/>
</clipPath>
</defs>
</svg>
