<svg width="123" height="107" viewBox="0 0 123 107" fill="none" xmlns="http://www.w3.org/2000/svg">
<path fill-rule="evenodd" clip-rule="evenodd" d="M114.07 54.18C110.749 50.8435 106.685 48.3418 102.21 46.88V9C102.21 6.61305 101.262 4.32387 99.574 2.63604C97.8861 0.948212 95.5969 0 93.21 0L9 0C6.61305 0 4.32387 0.948212 2.63604 2.63604C0.948212 4.32387 0 6.61305 0 9L0 75.47C0.0100441 77.8506 0.96291 80.1303 2.65 81.81L2.93 82.07C4.58325 83.5977 6.74898 84.4505 9 84.46H20V102.37C20 103.352 20.3895 104.294 21.0831 104.99C21.7767 105.685 22.7178 106.077 23.7 106.08C24.225 106.077 24.7435 105.965 25.2223 105.749C25.7011 105.534 26.1296 105.221 26.48 104.83L47.68 84.46H64.11C65.5789 89.0754 68.1258 93.2745 71.54 96.71C77.1798 102.35 84.8291 105.518 92.805 105.518C100.781 105.518 108.43 102.35 114.07 96.71C119.71 91.0702 122.878 83.4209 122.878 75.445C122.878 67.4691 119.71 59.8198 114.07 54.18ZM94.8 45.43C90.5575 45.1525 86.3043 45.7775 82.321 47.2638C78.3377 48.7501 74.7147 51.064 71.6909 54.0528C68.6672 57.0416 66.3114 60.6374 64.7788 64.6032C63.2463 68.5689 62.5719 72.8145 62.8 77.06H46.21C45.2595 77.0502 44.3422 77.4086 43.65 78.06L27.37 93.7V80.7C27.3674 79.7178 26.9753 78.7767 26.2798 78.0831C25.5844 77.3895 24.6422 77 23.66 77H9C8.63595 76.9943 8.28413 76.8677 8 76.64L7.9 76.54C7.6028 76.2466 7.43383 75.8476 7.43 75.43V9C7.44227 8.58561 7.61102 8.19124 7.90231 7.89624C8.1936 7.60125 8.5858 7.42751 9 7.41H93.23C93.6488 7.41755 94.0477 7.59004 94.34 7.89C94.4862 8.03543 94.6022 8.20841 94.6812 8.39894C94.7601 8.58947 94.8005 8.79376 94.8 9V45.43ZM25.43 55.24C24.9273 55.2661 24.4245 55.1897 23.9522 55.0153C23.48 54.8409 23.0482 54.5722 22.6831 54.2256C22.318 53.879 22.0272 53.4617 21.8286 52.9991C21.6299 52.5366 21.5275 52.0384 21.5275 51.535C21.5275 51.0316 21.6299 50.5334 21.8286 50.0709C22.0272 49.6083 22.318 49.191 22.6831 48.8444C23.0482 48.4978 23.48 48.2291 23.9522 48.0547C24.4245 47.8803 24.9273 47.8039 25.43 47.83H59.82C60.7693 47.8793 61.6635 48.2912 62.318 48.9806C62.9725 49.67 63.3375 50.5844 63.3375 51.535C63.3375 52.4856 62.9725 53.4 62.318 54.0894C61.6635 54.7788 60.7693 55.1907 59.82 55.24H25.43ZM25.43 33.31C24.9273 33.3361 24.4245 33.2597 23.9522 33.0853C23.48 32.9109 23.0482 32.6422 22.6831 32.2956C22.318 31.949 22.0272 31.5317 21.8286 31.0691C21.6299 30.6066 21.5275 30.1084 21.5275 29.605C21.5275 29.1016 21.6299 28.6034 21.8286 28.1409C22.0272 27.6783 22.318 27.261 22.6831 26.9144C23.0482 26.5678 23.48 26.2991 23.9522 26.1247C24.4245 25.9503 24.9273 25.8739 25.43 25.9H76.79C77.2927 25.8739 77.7955 25.9503 78.2678 26.1247C78.74 26.2991 79.1718 26.5678 79.5369 26.9144C79.902 27.261 80.1928 27.6783 80.3914 28.1409C80.5901 28.6034 80.6926 29.1016 80.6926 29.605C80.6926 30.1084 80.5901 30.6066 80.3914 31.0691C80.1928 31.5317 79.902 31.949 79.5369 32.2956C79.1718 32.6422 78.74 32.9109 78.2678 33.0853C77.7955 33.2597 77.2927 33.3361 76.79 33.31H25.43ZM96.28 82.91H88C88 81.49 88 78.39 88.47 77.04C88.793 76.1579 89.278 75.3439 89.9 74.64C91.2265 73.2666 92.6465 71.9869 94.15 70.81C95.33 69.81 95.91 68.97 95.91 68.18C95.9292 67.836 95.876 67.4917 95.7536 67.1696C95.6313 66.8474 95.4427 66.5546 95.2 66.31C94.5933 65.8328 93.8296 65.6009 93.06 65.66C92.5891 65.6426 92.1196 65.7224 91.6808 65.8944C91.2421 66.0665 90.8435 66.3271 90.51 66.66C89.6983 67.6722 89.2415 68.9229 89.21 70.22L80.78 69.22C80.9403 66.3929 82.1407 63.7251 84.15 61.73C86.15 59.8367 89.15 58.8933 93.15 58.9C95.8429 58.7845 98.5082 59.4813 100.8 60.9C102.03 61.6393 103.046 62.6868 103.748 63.939C104.449 65.1912 104.812 66.6048 104.8 68.04C104.799 69.2989 104.453 70.5335 103.8 71.61C102.659 73.234 101.249 74.6511 99.63 75.8C98.5466 76.5634 97.6056 77.5111 96.85 78.6C96.4336 80.0181 96.2413 81.4925 96.28 82.97V82.91ZM96.58 85.91V92H87.73V85.9L96.58 85.91Z" fill="white"/>
</svg>
