<svg width="44" height="44" viewBox="0 0 44 44" fill="none" xmlns="http://www.w3.org/2000/svg">
<path d="M37.125 17.875C37.4897 17.875 37.8394 17.7301 38.0973 17.4723C38.3551 17.2144 38.5 16.8647 38.5 16.5V6.875C38.5 5.78098 38.0654 4.73177 37.2918 3.95818C36.5182 3.1846 35.469 2.75 34.375 2.75H12.375C11.281 2.75 10.2318 3.1846 9.45818 3.95818C8.6846 4.73177 8.25 5.78098 8.25 6.875V15.125H4.125C3.03098 15.125 1.98177 15.5596 1.20818 16.3332C0.434597 17.1068 0 18.156 0 19.25L0 35.75C0 37.2087 0.579463 38.6076 1.61091 39.6391C2.64236 40.6705 4.04131 41.25 5.5 41.25H34.375C35.469 41.25 36.5182 40.8154 37.2918 40.0418C38.0654 39.2682 38.5 38.219 38.5 37.125V30.0575C38.5 29.6928 38.3551 29.3431 38.0973 29.0852C37.8394 28.8274 37.4897 28.6825 37.125 28.6825C36.7603 28.6825 36.4106 28.8274 36.1527 29.0852C35.8949 29.3431 35.75 29.6928 35.75 30.0575V37.125C35.75 37.4897 35.6051 37.8394 35.3473 38.0973C35.0894 38.3551 34.7397 38.5 34.375 38.5H10.23C10.7299 37.6695 10.9959 36.7193 11 35.75V6.875C11 6.51033 11.1449 6.16059 11.4027 5.90273C11.6606 5.64487 12.0103 5.5 12.375 5.5H34.375C34.7397 5.5 35.0894 5.64487 35.3473 5.90273C35.6051 6.16059 35.75 6.51033 35.75 6.875V16.5C35.75 16.8647 35.8949 17.2144 36.1527 17.4723C36.4106 17.7301 36.7603 17.875 37.125 17.875ZM2.75 35.75V19.25C2.75 18.8853 2.89487 18.5356 3.15273 18.2777C3.41059 18.0199 3.76033 17.875 4.125 17.875H8.25V35.75C8.25 36.4793 7.96027 37.1788 7.44454 37.6945C6.92882 38.2103 6.22935 38.5 5.5 38.5C4.77065 38.5 4.07118 38.2103 3.55546 37.6945C3.03973 37.1788 2.75 36.4793 2.75 35.75Z" fill="white"/>
<path d="M33 15.125V9.625C33 9.26033 32.8551 8.91059 32.5973 8.65273C32.3394 8.39487 31.9897 8.25 31.625 8.25H15.125C14.7603 8.25 14.4106 8.39487 14.1527 8.65273C13.8949 8.91059 13.75 9.26033 13.75 9.625V15.125C13.75 15.4897 13.8949 15.8394 14.1527 16.0973C14.4106 16.3551 14.7603 16.5 15.125 16.5H31.625C31.9897 16.5 32.3394 16.3551 32.5973 16.0973C32.8551 15.8394 33 15.4897 33 15.125ZM30.25 13.75H16.5V11H30.25V13.75ZM22 19.25H15.125C14.7603 19.25 14.4106 19.3949 14.1527 19.6527C13.8949 19.9106 13.75 20.2603 13.75 20.625C13.75 20.9897 13.8949 21.3394 14.1527 21.5973C14.4106 21.8551 14.7603 22 15.125 22H22C22.3647 22 22.7144 21.8551 22.9723 21.5973C23.2301 21.3394 23.375 20.9897 23.375 20.625C23.375 20.2603 23.2301 19.9106 22.9723 19.6527C22.7144 19.3949 22.3647 19.25 22 19.25ZM15.125 33H22C22.3647 33 22.7144 32.8551 22.9723 32.5973C23.2301 32.3394 23.375 31.9897 23.375 31.625C23.375 31.2603 23.2301 30.9106 22.9723 30.6527C22.7144 30.3949 22.3647 30.25 22 30.25H15.125C14.7603 30.25 14.4106 30.3949 14.1527 30.6527C13.8949 30.9106 13.75 31.2603 13.75 31.625C13.75 31.9897 13.8949 32.3394 14.1527 32.5973C14.4106 32.8551 14.7603 33 15.125 33ZM15.125 27.5H20.625C20.9897 27.5 21.3394 27.3551 21.5973 27.0973C21.8551 26.8394 22 26.4897 22 26.125C22 25.7603 21.8551 25.4106 21.5973 25.1527C21.3394 24.8949 20.9897 24.75 20.625 24.75H15.125C14.7603 24.75 14.4106 24.8949 14.1527 25.1527C13.8949 25.4106 13.75 25.7603 13.75 26.125C13.75 26.4897 13.8949 26.8394 14.1527 27.0973C14.4106 27.3551 14.7603 27.5 15.125 27.5Z" fill="white"/>
<path d="M42.625 17.875C42.2603 17.875 41.9106 18.0199 41.6527 18.2777C41.3949 18.5356 41.25 18.8853 41.25 19.25V19.5938L34.2925 21.5737C34.2034 21.3003 34.0307 21.0617 33.7988 20.8915C33.567 20.7213 33.2876 20.6281 33 20.625H30.25C28.993 20.6301 27.7757 21.0656 26.8008 21.859C25.8258 22.6524 25.152 23.7558 24.8916 24.9855C24.6312 26.2152 24.7999 27.497 25.3696 28.6175C25.9392 29.738 26.8755 30.6296 28.0225 31.1437L28.875 34.705C28.9625 35.0697 29.1913 35.3846 29.5111 35.5806C29.8308 35.7766 30.2153 35.8375 30.58 35.75C30.9447 35.6625 31.2596 35.4337 31.4556 35.1139C31.6516 34.7942 31.7125 34.4097 31.625 34.045L30.9787 31.625H33C33.2876 31.6219 33.567 31.5287 33.7988 31.3585C34.0307 31.1883 34.2034 30.9497 34.2925 30.6762L41.25 32.6562V33C41.25 33.3647 41.3949 33.7144 41.6527 33.9723C41.9106 34.2301 42.2603 34.375 42.625 34.375C42.9897 34.375 43.3394 34.2301 43.5973 33.9723C43.8551 33.7144 44 33.3647 44 33V19.25C44 18.8853 43.8551 18.5356 43.5973 18.2777C43.3394 18.0199 42.9897 17.875 42.625 17.875ZM30.25 28.875C29.5206 28.875 28.8212 28.5853 28.3055 28.0695C27.7897 27.5538 27.5 26.8543 27.5 26.125C27.5 25.3957 27.7897 24.6962 28.3055 24.1805C28.8212 23.6647 29.5206 23.375 30.25 23.375H31.625V28.875H30.25ZM34.375 27.8438V24.4062L41.25 22.4537V29.7963L34.375 27.8438Z" fill="white"/>
</svg>
